<svg xmlns="http://www.w3.org/2000/svg" width="128" height="128" viewBox="0 0 128 128">
  <defs>
    <linearGradient id="grad1" x1="0%" y1="0%" x2="100%" y2="100%">
      <stop offset="0%" style="stop-color:#4f46e5;stop-opacity:1" />
      <stop offset="100%" style="stop-color:#7c3aed;stop-opacity:1" />
    </linearGradient>
    <linearGradient id="grad2" x1="0%" y1="0%" x2="100%" y2="100%">
      <stop offset="0%" style="stop-color:#fbbf24;stop-opacity:1" />
      <stop offset="100%" style="stop-color:#f59e0b;stop-opacity:1" />
    </linearGradient>
    <filter id="shadow" x="-20%" y="-20%" width="140%" height="140%">
      <feDropShadow dx="0" dy="4" stdDeviation="4" flood-color="#000" flood-opacity="0.3"/>
    </filter>
    <filter id="glow" x="-50%" y="-50%" width="200%" height="200%">
      <feGaussianBlur stdDeviation="2" result="coloredBlur"/>
      <feMerge> 
        <feMergeNode in="coloredBlur"/>
        <feMergeNode in="SourceGraphic"/> 
      </feMerge>
    </filter>
  </defs>
  
  <!-- 主背景 -->
  <rect width="128" height="128" rx="20" fill="url(#grad1)" filter="url(#shadow)"/>
  
  <!-- 书签线条 -->
  <g opacity="0.9">
    <rect x="32" y="48" width="64" height="6" rx="3" fill="white"/>
    <rect x="32" y="64" width="48" height="6" rx="3" fill="white"/>
    <rect x="32" y="80" width="64" height="6" rx="3" fill="white"/>
  </g>
  
  <!-- 智能标记圆圈 -->
  <circle cx="96" cy="32" r="16" fill="url(#grad2)" filter="url(#glow)"/>
  
  <!-- 智能图标 -->
  <g transform="translate(96, 32)">
    <path d="M-8 -4l10 6-10 6z" fill="white" opacity="0.9"/>
    <circle cx="-6" cy="-2" r="2" fill="white"/>
    <circle cx="-2" cy="2" r="1.5" fill="white" opacity="0.7"/>
  </g>
  
  <!-- 装饰性光点 -->
  <circle cx="20" cy="20" r="3" fill="white" opacity="0.3"/>
  <circle cx="108" cy="108" r="2" fill="white" opacity="0.2"/>
  <circle cx="20" cy="108" r="2.5" fill="white" opacity="0.25"/>
</svg>