<svg width="128" height="128" viewBox="0 0 128 128" fill="none" xmlns="http://www.w3.org/2000/svg">
  <rect width="128" height="128" rx="28" fill="white"/>
  <g clip-path="url(#clip0_101_2)">
    <rect x="22" y="22" width="84" height="84" rx="12" fill="#F4F5F7"/>
    <path fill-rule="evenodd" clip-rule="evenodd" d="M44 33H33V44H44V33ZM38.5 38.5V38.51H38.5V38.5Z" fill="#212529"/>
    <path d="M55 33H66V44H55V33Z" fill="#212529"/>
    <path d="M77 33H88V44H77V33Z" fill="#212529"/>
    <path fill-rule="evenodd" clip-rule="evenodd" d="M44 55H33V66H44V55ZM38.5 60.5V60.51H38.5V60.5Z" fill="#212529"/>
    <path d="M55 55H66V66H55V55Z" fill="#6C757D"/>
    <path d="M77 55H88V66H77V55Z" fill="#212529"/>
    <path fill-rule="evenodd" clip-rule="evenodd" d="M44 77H33V88H44V77ZM38.5 82.5V82.51H38.5V82.5Z" fill="#212529"/>
    <path d="M55 77H66V88H55V77Z" fill="#212529"/>
    <path d="M77 77H88V88H77V77Z" fill="#6C757D"/>
  </g>
  <defs>
    <clipPath id="clip0_101_2">
      <rect x="22" y="22" width="84" height="84" rx="12" fill="white"/>
    </clipPath>
  </defs>
</svg>
